# xmcd
#
# Track frame offsets:
#	150
#	12446
#	26771
#	45744
#	55987
#	71443
#	91180
#	102354
#	116066
#	128981
#
# Disc length: 1908 seconds
#
# Revision: 1
# Processed by: cddbd v1.5.2PL0 Copyright (c) Steve Scherf et al.
# Submitted via: audiograbber 1.83.01
#
DISCID=8607720a
DTITLE=Bule Bule e Antonio Queiroz - A Fome e a Vontade de Comer
DYEAR=1900
DGENRE=MPB
TTITLE0=A Fome Com A Vontade De Comer
TTITLE1=A Máquina De Lavar Roupa
TTITLE2=Meu Canário Avuou
TTITLE3=Você Morena
TTITLE4=Será Mentira Ou Será Verdade
TTITLE5=Homenagem Ao Campoliona
TTITLE6=Leve Pra Ver Se Eu Consigo
TTITLE7=Não Me Leve Pra O Mar
TTITLE8=Se Vai Me Leve
TTITLE9=Um Punhal Sujo De Sangue
EXTD=
EXTT0=
EXTT1=
EXTT2=
EXTT3=
EXTT4=
EXTT5=
EXTT6=
EXTT7=
EXTT8=
EXTT9=
PLAYORDER=
